# xmcd
#
# Track frame offsets:
#	150
#	16686
#	39766
#	59603
#	82522
#	103568
#	130763
#	152199
#	176874
#	204580
#	229380
#	269444
#	296847
#	320544
#
# Disc length: 4762 seconds
#
# Revision: 0
# Processed by: cddbd v1.5.2PL0 Copyright (c) Steve Scherf et al.
# Submitted via: EZCDAudioConverter 1.0.2.1
#
DISCID=bd12980e
DTITLE=Steppin' Hard Core - Various Artists
DYEAR=1900
DGENRE=
TTITLE0=Kloud 9 - Special On
TTITLE1=Lonnie Liston Smith Feat. Phyllis Hyman - Obsession 
TTITLE2=Gordon Chambers - That's When You Fall In Love
TTITLE3=Jody Watley - Working On A Groove Called Love
TTITLE4=Stanly Clark Feat. Howard Hewitt - Fantasy Love
TTITLE5=Liz Hogue - Dream Lover
TTITLE6=Marzette Griffith - Rhythm On Time
TTITLE7=You're My Everything
TTITLE8=Ray Obiedo - Sweet Summer Day
TTITLE9=Swing Out Sister - After The Laughter Is Over
TTITLE10=The Temptations - Love To The Music
TTITLE11=Bobby Hutton - 20 Years Later
TTITLE12=Marvin Jr. - Step The Night Away
TTITLE13=The Temptations - Stay
EXTD=
EXTT0=
EXTT1=
EXTT2=
EXTT3=
EXTT4=
EXTT5=
EXTT6=
EXTT7=
EXTT8=
EXTT9=
EXTT10=
EXTT11=
EXTT12=
EXTT13=
PLAYORDER=
